<?xml version="1.0" standalone="no"?>
<!DOCTYPE svg PUBLIC "-//W3C//DTD SVG 20010904//EN"
 "http://www.w3.org/TR/2001/REC-SVG-20010904/DTD/svg10.dtd">
<svg version="1.0" xmlns="http://www.w3.org/2000/svg"
 width="840.000000pt" height="287.000000pt" viewBox="0 0 840.000000 287.000000"
 preserveAspectRatio="xMidYMid meet">

<g transform="translate(0.000000,287.000000) scale(0.100000,-0.100000)"
fill="#000000" stroke="none">
<path d="M1718 2452 c-26 -3 -28 -7 -28 -48 l0 -44 -45 0 -45 0 0 45 0 45 -45
0 -45 0 0 -135 0 -135 45 0 45 0 0 45 0 45 45 0 45 0 0 -45 0 -45 45 0 45 0 0
134 c0 146 0 146 -62 138z"/>
<path d="M2138 2452 c-16 -3 -18 -18 -18 -138 l0 -134 45 0 45 0 0 63 0 62 28
-42 c15 -24 30 -43 34 -43 4 0 18 19 32 43 l26 42 0 -62 0 -63 45 0 45 0 1
108 c2 173 3 171 -56 164 -28 -3 -40 -12 -62 -48 -16 -24 -30 -44 -33 -44 -3
0 -17 20 -32 44 -26 43 -55 57 -100 48z"/>
<path d="M1820 2405 l0 -45 40 0 40 0 0 -90 0 -90 45 0 45 0 0 90 0 90 45 0
45 0 0 45 0 45 -130 0 -130 0 0 -45z"/>
<path d="M2460 2315 l0 -135 110 0 110 0 0 45 0 45 -65 0 -65 0 0 90 0 90 -45
0 -45 0 0 -135z"/>
<path d="M4089 2438 c0 -7 0 -47 0 -88 1 -41 -2 -80 -7 -87 -4 -6 -32 -13 -62
-15 -54 -3 -55 -4 -55 -33 l0 -30 98 -3 97 -3 0 136 0 135 -35 0 c-21 0 -35
-5 -36 -12z"/>
<path d="M4200 2365 l0 -85 90 0 c73 0 90 -3 90 -15 0 -12 -17 -15 -90 -15
l-90 0 0 -35 0 -35 125 0 125 0 0 85 0 85 -90 0 c-73 0 -90 3 -90 15 0 12 17
15 90 15 l90 0 0 35 0 35 -125 0 -125 0 0 -85z"/>
<path d="M5879 2425 c0 -14 0 -52 0 -85 0 -33 0 -82 0 -110 l1 -50 125 0 125
0 0 35 0 35 -90 0 -90 0 0 65 0 65 90 0 90 0 0 35 0 35 -125 0 -125 0 -1 -25z"/>
<path d="M6172 2368 l3 -83 88 -3 c68 -2 87 -6 87 -17 0 -12 -18 -15 -90 -15
l-90 0 0 -35 0 -35 130 0 130 0 0 85 0 85 -90 0 c-73 0 -90 3 -90 15 0 12 17
15 90 15 l90 0 0 35 0 35 -130 0 -131 0 3 -82z"/>
<path d="M6470 2365 l0 -85 90 0 c73 0 90 -3 90 -15 0 -12 -17 -15 -90 -15
l-90 0 0 -35 0 -35 130 0 130 0 0 85 0 85 -95 0 c-78 0 -95 3 -95 15 0 12 17
15 95 15 l95 0 0 35 0 35 -130 0 -130 0 0 -85z"/>
<path d="M1376 2003 c3 -27 32 -358 64 -737 33 -380 63 -693 67 -697 5 -4 140
-44 302 -89 l293 -82 301 84 301 85 63 714 c34 393 62 726 62 742 l1 27 -730
0 -729 0 5 -47z m1179 -340 c-4 -49 -9 -91 -12 -95 -2 -5 -158 -8 -345 -8
l-341 0 7 -46 c3 -26 6 -66 6 -90 l0 -44 330 0 c258 0 330 -3 330 -12 -2 -51
-49 -540 -52 -544 -3 -2 -88 -27 -189 -55 l-184 -51 -175 47 c-96 26 -182 51
-191 56 -12 6 -18 29 -23 79 -3 38 -9 102 -12 140 l-7 70 95 0 96 0 6 -31 c3
-17 6 -51 6 -74 l0 -43 101 -27 c98 -27 102 -27 157 -12 31 8 76 20 99 26 46
13 42 1 57 179 l6 62 -315 0 c-293 0 -315 1 -316 18 0 9 -10 132 -23 272 -13
140 -21 258 -19 263 2 4 209 7 460 7 l455 0 -7 -87z"/>
<path d="M3480 2023 c0 -36 120 -1435 124 -1448 2 -6 138 -48 303 -94 l299
-83 294 82 c162 45 298 85 302 89 3 3 34 326 67 716 34 391 62 722 64 738 l4
27 -729 0 -728 0 0 -27z m670 -789 l0 -516 -27 7 c-16 3 -113 30 -218 58
l-190 52 -3 88 c-1 48 -1 87 0 87 2 0 59 -16 128 -35 69 -19 131 -35 138 -35
9 0 12 88 12 405 l0 405 80 0 80 0 0 -516z m565 439 c-4 -43 -9 -81 -12 -85
-2 -5 -67 -8 -144 -8 l-139 0 0 -135 c0 -101 3 -135 13 -135 6 0 66 9 132 19
66 10 121 18 123 17 2 -3 -34 -410 -44 -482 l-5 -42 -183 -51 c-100 -28 -186
-51 -189 -51 -4 0 -7 38 -7 84 l0 84 33 11 c17 5 68 19 112 31 44 12 83 25 87
28 7 7 31 192 26 198 -2 2 -58 -6 -123 -16 -66 -11 -123 -20 -127 -20 -5 0 -8
142 -8 315 l0 315 231 0 231 0 -7 -77z"/>
<path d="M5580 2043 c-1 -20 122 -1440 125 -1458 4 -17 48 -32 304 -104 l300
-84 298 83 c164 46 299 84 301 85 1 1 29 312 62 691 32 379 62 713 65 742 l6
52 -730 0 c-402 0 -731 -3 -731 -7z m1182 -343 c-1 -25 -5 -67 -8 -93 l-6 -48
-176 -89 -177 -89 168 0 167 -1 0 -27 c0 -16 -9 -138 -21 -273 -14 -164 -25
-248 -34 -255 -7 -5 -93 -32 -192 -58 l-179 -49 -184 51 c-100 28 -184 52
-186 54 -6 6 -24 187 -24 240 l0 48 93 -3 92 -3 8 -72 9 -72 52 -15 c135 -40
147 -40 238 -16 47 12 91 26 97 30 11 6 32 216 22 226 -2 2 -143 4 -312 4
l-309 0 -4 23 c-3 12 -7 56 -11 97 l-5 75 172 87 173 87 -178 0 c-133 1 -179
4 -182 14 -2 6 -6 49 -10 95 l-6 82 458 -2 458 -3 -3 -45z"/>
</g>
</svg>
